<?xml version="1.0"?>
<svg xmlns="http://www.w3.org/2000/svg" xmlns:xlink="http://www.w3.org/1999/xlink" version="1.1" id="Capa_1" x="0px" y="0px" viewBox="0 0 512 512" style="enable-background:new 0 0 512 512;" xml:space="preserve" width="512px" height="512px" class=""><g transform="matrix(-1.85460e-16 -1.0096 -1.0096 1.85460e-16 514.457 514.457)"><rect id="SVGCleanerId_0" style="fill:#FDFCFC" width="512" height="512" data-original="#2979FF" class="" data-old_color="#FCFBFB"/><g>
	<rect id="SVGCleanerId_0_1_" style="fill:#FDFCFC" width="512" height="512" data-original="#2979FF" class="" data-old_color="#FCFBFB"/>
</g><g>
	<path style="fill:#FFB24C;" d="M237.1,238.4c-4.357-4.391-11.448-4.418-15.839-0.061c-0.02,0.02-0.041,0.041-0.061,0.061   l-37.1,37.1c-0.8-2.7-1.9-5.5-3-8.5l58.4-58.4c4.908-4.918,4.908-12.882,0-17.8l0,0c-4.918-4.908-12.882-4.908-17.8,0l-53.3,53.3   c-1.533-2.2-3.2-4.367-5-6.5l61.8-61.8c5.491-5.536,5.491-14.464,0-20l0,0c-5.536-5.491-14.464-5.491-20,0l-62,62   c-2.867-2.267-5.733-4.333-8.6-6.2l45-45c5.771-5.811,5.771-15.189,0-21l0,0c-5.811-5.771-15.189-5.771-21,0l-51.9,51.9   c-17.7-6.6-30.8-7.3-30.8-7.3l-21.6,21.4c-20.679,20.656-28.392,50.973-20.1,79L0,324.9V362l39.7,39.7l55.5-55.5   c26.072,5.177,53.008-3.001,71.8-21.8l21.5-21.5l48.6-48.6c4.391-4.357,4.418-11.448,0.061-15.839   C237.141,238.441,237.12,238.42,237.1,238.4L237.1,238.4z" data-original="#FFB24C" class=""/>
	<path style="fill:#FFB24C;" d="M366.4,332.5L366.4,332.5c-5.811-5.771-15.189-5.771-21,0l-45,45c-1.867-2.867-3.933-5.733-6.2-8.6   l62-62c5.491-5.536,5.491-14.464,0-20l0,0c-5.536-5.491-14.464-5.491-20,0l-61.8,61.8c-2.2-1.8-4.367-3.467-6.5-5l53.3-53.3   c4.688-5.143,4.318-13.112-0.825-17.8c-4.809-4.383-12.166-4.383-16.975,0L244.9,331c-2.9-1.2-5.8-2.2-8.5-3l37.1-37.1   c4.391-4.357,4.418-11.448,0.061-15.839c-0.02-0.02-0.041-0.041-0.061-0.061l0,0c-4.357-4.391-11.448-4.418-15.839-0.061   c-0.02,0.02-0.041,0.041-0.061,0.061L209,323.6L187.6,345c-18.835,18.773-27.052,45.711-21.9,71.8l-55.5,55.5L150,512h37.2   l34.2-34.2c28.027,8.292,58.344,0.579,79-20.1l21.5-21.5c0,0-0.8-13.1-7.3-30.8l51.9-51.9   C372.244,347.662,372.199,338.283,366.4,332.5z" data-original="#FFB24C" class=""/>
</g><rect x="119" y="118.958" transform="matrix(-0.7071 -0.7071 0.7071 -0.7071 256.0276 617.9639)" style="fill:#D500F9;" width="273.997" height="273.997" data-original="#D500F9" class=""/><path style="fill:#FFFF00;" d="M325.5,380.3L190.2,245H241v-15h-23c2.044-3.989,3.074-8.419,3-12.9h0.1  c0.007-4.833-1.233-9.586-3.6-13.8l89.7-89.7L296.6,103L207,192.6c-4.238-2.396-9.031-3.638-13.9-3.6l0,0  c-15.519,0-28.1,12.581-28.1,28.1l0,0v2.7l-33.3-33.3l-10.6,10.6L154,230h-2.3c-15.6,0-28.7,12.7-28.7,28.4v0.2  c0.072,4.893,1.416,9.684,3.9,13.9l-24.1,24.2l10.7,10.6l24.2-24.3c8.43,4.804,18.733,4.955,27.3,0.4V307h15v-51l134.9,134.9  L325.5,380.3z M180,217.1c-0.165-7.288,5.609-13.331,12.897-13.496c7.288-0.165,13.331,5.609,13.496,12.897  c0.165,7.288-5.609,13.331-12.897,13.496c-0.132,0.003-0.264,0.004-0.396,0.003H180V217.1z M151.5,271.7  c-7.362,0.056-13.39-5.839-13.5-13.2v-0.2c0.216-7.41,6.287-13.303,13.7-13.3H165v13.5C164.837,265.838,158.84,271.702,151.5,271.7z  " data-original="#FFFF00" class=""/><g>
	<path style="fill:#FFD180;" d="M179.8,448.6c2.37,3.223,4.977,6.265,7.8,9.1l0,0c31.123,31.116,81.577,31.116,112.7,0l19.6-19.6   l-8.4-8.4C272.3,390.5,206.4,400,179.8,448.6z" data-original="#FFD180" class=""/>
	<path style="fill:#FFD180;" d="M359.501,398.627L359.501,398.627L359.501,398.627L300.528,457.6l0,0l-26.163-26.163l0,0   l32.81-32.81C321.624,384.177,345.051,384.177,359.501,398.627L359.501,398.627z" data-original="#FFD180" class=""/>
</g><polygon style="fill:#651FFF" points="35.7,512 222.7,512 234.7,500 141.2,406.5 " data-original="#651FFF" class="active-path"/><g>
	<path style="fill:#FFD180;" d="M63.4,332.2c-3.223-2.37-6.265-4.977-9.1-7.8l0,0c-31.116-31.123-31.116-81.577,0-112.7l19.6-19.6   l8.4,8.4C121.5,239.7,112,305.6,63.4,332.2z" data-original="#FFD180" class=""/>
	<path style="fill:#FFD180;" d="M80.662,237.622l-26.163-26.163l0,0l58.973-58.973l0,0l0,0c14.449,14.449,14.449,37.876,0,52.326   L80.662,237.622L80.662,237.622z" data-original="#FFD180" class=""/>
</g><polygon style="fill:#651FFF" points="0,477.5 106.1,371.4 12.6,277.9 0,290.5 " data-original="#651FFF" class="active-path"/><path style="fill:#FFB24C;" d="M466.2,104.1l-58.3-58.3l-52.8,52.8c-28.027-8.292-58.344-0.579-79,20.1l-21.5,21.5  c0,0,0.8,13.1,7.3,30.8L210,222.9c-5.771,5.811-5.771,15.189,0,21l0,0c5.811,5.771,15.189,5.771,21,0l45-45  c1.867,2.867,3.933,5.733,6.2,8.6l-62,62c-5.491,5.536-5.491,14.464,0,20l0,0c5.536,5.491,14.464,5.491,20,0l61.8-61.7  c2.2,1.8,4.367,3.467,6.5,5L255.3,286c-4.908,4.918-4.908,12.882,0,17.8l0,0c4.918,4.908,12.882,4.908,17.8,0l58.4-58.4  c2.9,1.2,5.8,2.2,8.5,3l-37.1,37.1c-4.391,4.391-4.391,11.509,0,15.9s11.509,4.391,15.9,0l48.6-48.6l21.5-21.5  c18.835-18.773,27.052-45.711,21.9-71.8L466.2,104.1z" data-original="#FFB24C" class=""/><rect x="217.449" y="162.487" transform="matrix(-0.8545 -0.5195 0.5195 -0.8545 439.8598 552.7628)" style="fill:#FFFDE7;" width="159.804" height="104.573" data-original="#FFFDE7" class=""/><path style="fill:#0072FF" d="M234,220.8l87.1,52.9c4.184-6.857,13.12-9.046,20-4.9l24.2-39.9c-6.857-4.184-9.046-13.12-4.9-20  L273.3,156c-4.184,6.857-13.12,9.046-20,4.9l-24.2,39.9C235.957,204.984,238.146,213.92,234,220.8z M308.9,195.5  c11.049,6.703,14.573,21.094,7.871,32.143c-6.703,11.049-21.094,14.573-32.143,7.871c-11.049-6.703-14.573-21.094-7.871-32.143  c0.014-0.024,0.029-0.047,0.043-0.071C283.525,192.302,297.878,188.814,308.9,195.5z" data-original="#00C853" class="" data-old_color="#001EFF"/><g>
	<path style="fill:#FFD180;" d="M216.865,177.784L216.865,177.784L216.865,177.784l58.973-58.973l0,0l26.163,26.163l0,0   l-32.81,32.81C254.741,192.233,231.314,192.233,216.865,177.784z" data-original="#FFD180" class=""/>
	<path style="fill:#FFD180;" d="M396.6,127.8c-2.37-3.223-4.977-6.265-7.8-9.1l0,0c-31.123-31.116-81.577-31.116-112.7,0l-19.6,19.6   l8.4,8.4C304.1,185.9,370,176.4,396.6,127.8z" data-original="#FFD180" class=""/>
</g><polygon style="fill:#0072FF" points="512,0 418.1,0 341.2,76.9 434.8,170.4 512,93.2 " data-original="#00C853" class="" data-old_color="#001EFF"/></g> </svg>
